# xmcd
#
# Track frame offsets: 
#        150
#        14272
#        27497
#        43712
#        56515
#        63760
#        81947
#        98360
#        112262
#        131677
#        147630
#        176675
#
# Disc length: 2711 seconds
#
# Revision: 2
# Processed by: cddbd v1.5.2PL0 Copyright (c) Steve Scherf et al.
# Submitted via: ExactAudioCopy v0.99pb5
#
DISCID=a50a950c
DTITLE=King Kong and D.J.Ungle Girls - Boom Boom Dollars
DYEAR=1989
DGENRE=Electronic
TTITLE0=Boom Boom Dollar
TTITLE1=It's So Funny
TTITLE2=Living In D.Jungle
TTITLE3=Da Ya Like Bananas
TTITLE4=The Rhythm Of D.Jungle
TTITLE5=Walkie Talkie
TTITLE6=Turn The Sound Up Higher
TTITLE7=Don't Let Me Be Misunderstood
TTITLE8=Lies
TTITLE9=Living In D.Jungle (Monkey Bonus Reprise)
TTITLE10=King Kong Mega Mix
TTITLE11=Boom Boom Dollar (Boom Boom Mix)
EXTD=
EXTT0=
EXTT1=
EXTT2=
EXTT3=
EXTT4=
EXTT5=
EXTT6=
EXTT7=
EXTT8=
EXTT9=
EXTT10=
EXTT11=
PLAYORDER=
